<mxfile host="app.diagrams.net" modified="2022-09-30T10:30:53.364Z" agent="5.0 (Macintosh; Intel Mac OS X 10_15_7) AppleWebKit/537.36 (KHTML, like Gecko) Chrome/105.0.0.0 Safari/537.36 Edg/105.0.1343.53" etag="yz9pndiwrJDU7ZHFE6Yn" version="20.2.6" type="github">
  <diagram id="xIe_HG_3Km9X2vpp73J5" name="Page-1">
    <mxGraphModel dx="1971" dy="1072" grid="1" gridSize="10" guides="1" tooltips="1" connect="1" arrows="1" fold="1" page="1" pageScale="1" pageWidth="850" pageHeight="1100" math="0" shadow="0">
      <root>
        <mxCell id="0" />
        <mxCell id="1" parent="0" />
        <mxCell id="fIOTUQeOJa7oL_ZKa7Nh-4" style="edgeStyle=orthogonalEdgeStyle;rounded=0;orthogonalLoop=1;jettySize=auto;html=1;" edge="1" parent="1" source="fIOTUQeOJa7oL_ZKa7Nh-1" target="fIOTUQeOJa7oL_ZKa7Nh-3">
          <mxGeometry relative="1" as="geometry" />
        </mxCell>
        <mxCell id="fIOTUQeOJa7oL_ZKa7Nh-1" value="" style="outlineConnect=0;dashed=0;verticalLabelPosition=bottom;verticalAlign=top;align=center;html=1;shape=mxgraph.aws3.athena;fillColor=#F58534;gradientColor=none;" vertex="1" parent="1">
          <mxGeometry x="190" y="160" width="76.5" height="76.5" as="geometry" />
        </mxCell>
        <mxCell id="fIOTUQeOJa7oL_ZKa7Nh-5" style="edgeStyle=orthogonalEdgeStyle;rounded=0;orthogonalLoop=1;jettySize=auto;html=1;" edge="1" parent="1" source="fIOTUQeOJa7oL_ZKa7Nh-2" target="fIOTUQeOJa7oL_ZKa7Nh-3">
          <mxGeometry relative="1" as="geometry" />
        </mxCell>
        <mxCell id="fIOTUQeOJa7oL_ZKa7Nh-2" value="" style="outlineConnect=0;dashed=0;verticalLabelPosition=bottom;verticalAlign=top;align=center;html=1;shape=mxgraph.aws3.kinesis_enabled_app;fillColor=#F58534;gradientColor=none;" vertex="1" parent="1">
          <mxGeometry x="220" y="360" width="64.5" height="67.5" as="geometry" />
        </mxCell>
        <mxCell id="fIOTUQeOJa7oL_ZKa7Nh-3" value="" style="rounded=1;whiteSpace=wrap;html=1;" vertex="1" parent="1">
          <mxGeometry x="480" y="310" width="120" height="60" as="geometry" />
        </mxCell>
      </root>
    </mxGraphModel>
  </diagram>
</mxfile>
